<svg width="300" height="144" viewBox="0 0 300 144" fill="none" xmlns="http://www.w3.org/2000/svg">
<g clip-path="url(#clip0_364_4441)">
<g clip-path="url(#clip1_364_4441)">
<path d="M1.16797 101.375H20.0426C30.4843 101.375 34.5294 107.955 34.5294 114.728C34.5294 121.501 30.4843 128.081 20.0426 128.081H10.3639V143.009H1.16797V101.375ZM10.3756 120.967H17.5197C21.8023 120.967 25.6138 120.034 25.6138 114.728C25.6138 109.421 21.8023 108.489 17.5197 108.489H10.3639V120.967H10.3756Z" fill="white"/>
<path d="M40.2766 101.375H49.4842V135.311H69.8966V143.009H40.2766V101.375Z" fill="white"/>
<path d="M86.4965 101.375H95.9377L111.596 143.005H102.038L98.8693 133.716H83.2106L79.9247 143.005H70.5808L86.4965 101.375ZM85.6166 126.92H96.4672L91.1879 111.643H91.0711L85.6166 126.92Z" fill="white"/>
<path d="M115.241 101.375H124.39L141.867 129.304H141.984V101.375H150.607V143.009H141.396L123.977 115.142H123.86V143.009H115.241V101.375Z" fill="white"/>
<path d="M158.701 101.375H167.851L185.32 129.308H185.437V101.375H194.06V143.009H184.86L167.442 115.142H167.325V143.009H158.701V101.375Z" fill="white"/>
<path d="M202.162 101.375H211.37V143.009H202.162V101.375Z" fill="white"/>
<path d="M219.468 101.375H228.617L246.094 129.304H246.211V101.375H254.834V143.009H245.627L228.208 115.142H228.091V143.009H219.468V101.375Z" fill="white"/>
<path d="M293.195 138.283C289.967 142.432 285.747 143.981 281.698 143.981C268.737 143.981 261.11 134.359 261.11 122.349C261.11 109.986 268.733 100.368 281.698 100.368C290.263 100.368 298.357 105.617 299.354 115.076H290.555C289.5 110.47 286.039 108.078 281.698 108.078C273.428 108.078 270.318 115.076 270.318 122.364C270.318 129.304 273.432 136.298 281.698 136.298C287.682 136.298 291.139 133.089 291.668 127.318H282.402V120.502H299.996V143.009H294.133L293.195 138.283Z" fill="white"/>
<path d="M7.57241 0.0309636L31.4537 0L62.0704 29.2567V6.8236L68.7863 0H94.3768L99.9014 5.24446L99.8235 90.1931L93.532 95.8129H68.362L37.2236 65.6157L37.3209 89.7867L31.0294 95.8129H6.70811L0 89.3957V6.69975L7.57241 0.0309636Z" fill="white"/>
<path d="M104.749 0.0310059H130.475L136.385 6.66108V18.2376L148.614 29.8141L160.847 18.6324V7.06361L167.594 0.6735H192.476L198.798 7.46614V42.9814L167.594 72.5245V88.4862L161.267 95.6659H135.957L129.634 88.8849V71.3285L100.018 42.8033L99.9639 5.2445L104.749 0.0310059Z" fill="white"/>
<path d="M198.798 18.3653L218.101 0.414185H280.21L299.097 18.5356V35.8636L291.96 41.9093H261.744V35.8636H236.575V59.2295H261.324V54.3953H292.381L299.237 61.2421L299.05 76.5498L278.949 95.8904H218.101L198.798 77.7574V18.3653Z" fill="white"/>
<path d="M294.822 4.25732C295.441 4.25732 295.99 4.19926 295.99 3.48323C295.99 2.87944 295.395 2.8059 294.9 2.8059H293.903V4.25732H294.826H294.822ZM293.899 7.09049H293.074V2.09761H294.978C296.193 2.09761 296.812 2.51949 296.812 3.53354C296.812 4.43536 296.255 4.81466 295.504 4.89594L296.913 7.08662H295.975L294.678 4.954H293.899V7.08662V7.09049ZM294.795 0.773915C292.848 0.773915 291.291 2.32209 291.291 4.50116C291.291 6.55249 292.622 8.2284 294.795 8.2284C296.742 8.2284 298.264 6.70731 298.264 4.50116C298.264 2.295 296.738 0.773915 294.795 0.773915ZM294.795 9.01023C292.186 9.01023 290.329 7.075 290.329 4.50116C290.329 3.32683 290.799 2.20061 291.634 1.37023C292.469 0.539862 293.602 0.0733643 294.783 0.0733643C295.965 0.0733643 297.097 0.539862 297.933 1.37023C298.768 2.20061 299.237 3.32683 299.237 4.50116C299.257 5.09105 299.156 5.67875 298.941 6.22887C298.726 6.77899 298.401 7.28015 297.986 7.70217C297.571 8.12418 297.074 8.45831 296.526 8.68445C295.977 8.91058 295.389 9.02403 294.795 9.01797" fill="white"/>
</g>
</g>
<defs>
<clipPath id="clip0_364_4441">
<rect width="300" height="144" fill="white"/>
</clipPath>
<clipPath id="clip1_364_4441">
<rect width="300" height="144" fill="white"/>
</clipPath>
</defs>
</svg>
