<?xml version="1.0"?>
<svg width="275" height="130" xmlns="http://www.w3.org/2000/svg" xmlns:svg="http://www.w3.org/2000/svg">
 <defs>
  <clipPath id="clip0_1_85">
   <rect fill="white" height="130" id="svg_1" width="274.55"/>
  </clipPath>
 </defs>
 <g class="layer">
  <title>Layer 1</title>
  <g clip-path="url(#clip0_1_85)" id="svg_2">
   <path d="m1.07,91.52l17.27,0c9.56,0 13.26,5.94 13.26,12.05c0,6.12 -3.7,12.06 -13.26,12.06l-8.86,0l0,13.47l-8.41,0l0,-37.58zm8.42,17.69l6.54,0c3.92,0 7.41,-0.85 7.41,-5.64c0,-4.79 -3.49,-5.63 -7.41,-5.63l-6.55,0l0,11.27l0.01,0z" fill="#000000" id="svg_3"/>
   <path d="m36.86,91.52l8.43,0l0,30.64l18.68,0l0,6.94l-27.11,0l0,-37.58z" fill="#000000" id="svg_4"/>
   <path d="m79.16,91.52l8.64,0l14.33,37.58l-8.75,0l-2.9,-8.38l-14.33,0l-3.01,8.38l-8.55,0l14.57,-37.58zm-0.81,23.06l9.93,0l-4.83,-13.79l-0.1,0l-5,13.79z" fill="#000000" id="svg_5"/>
   <path d="m105.46,91.52l8.38,0l15.99,25.21l0.11,0l0,-25.21l7.89,0l0,37.58l-8.43,0l-15.94,-25.15l-0.11,0l0,25.15l-7.89,0l0,-37.58z" fill="#000000" id="svg_6"/>
   <path d="m145.24,91.52l8.37,0l15.99,25.22l0.1,0l0,-25.22l7.89,0l0,37.58l-8.41,0l-15.94,-25.15l-0.11,0l0,25.15l-7.89,0l0,-37.58z" fill="#000000" id="svg_7"/>
   <path d="m185.01,91.52l8.42,0l0,37.58l-8.42,0l0,-37.58z" fill="#000000" id="svg_8"/>
   <path d="m200.85,91.52l8.37,0l15.99,25.21l0.11,0l0,-25.21l7.89,0l0,37.58l-8.43,0l-15.94,-25.15l-0.1,0l0,25.15l-7.89,0l0,-37.58z" fill="#000000" id="svg_9"/>
   <path d="m268.32,124.84c-2.96,3.75 -6.82,5.14 -10.52,5.14c-11.86,0 -18.84,-8.68 -18.84,-19.53c0,-11.16 6.97,-19.84 18.84,-19.84c7.83,0 15.24,4.74 16.15,13.28l-8.05,0c-0.96,-4.16 -4.13,-6.32 -8.1,-6.32c-7.57,0 -10.42,6.32 -10.42,12.9c0,6.26 2.85,12.58 10.42,12.58c5.47,0 8.64,-2.9 9.12,-8.11l-8.48,0l0,-6.15l16.1,0l0,20.31l-5.36,0l-0.86,-4.26z" fill="#000000" id="svg_10"/>
   <path d="m6.93,0.03l21.85,-0.03l28.02,26.41l0,-20.25l6.15,-6.16l23.42,0l5.05,4.73l-0.07,76.69l-5.75,5.08l-23.04,0l-28.49,-27.26l0.08,21.82l-5.75,5.44l-22.26,0l-6.14,-5.8l0,-74.65l6.93,-6.02z" fill="#da6c27" id="svg_11"/>
   <path d="m95.86,0.03l23.55,0l5.4,5.98l0,10.45l11.19,10.46l11.2,-10.1l0,-10.44l6.17,-5.77l22.78,0l5.78,6.13l0,32.06l-28.56,26.67l0,14.41l-5.79,6.48l-23.16,0l-5.78,-6.12l0,-15.85l-27.11,-25.75l-0.05,-33.91l4.38,-4.7z" fill="#da6c27" id="svg_12"/>
   <path d="m181.93,16.58l17.66,-16.21l56.84,0l17.29,16.36l0,15.65l-6.53,5.45l-27.66,0l0,-5.45l-23.03,0l0,21.09l22.65,0l0,-4.36l28.42,0l6.28,6.18l-0.17,13.82l-18.4,17.46l-55.69,0l-17.66,-16.37l0,-53.62z" fill="#da6c27" id="svg_13"/>
   <path d="m269.81,3.84c0.56,0 1.07,-0.05 1.07,-0.7c0,-0.54 -0.55,-0.61 -1,-0.61l-0.91,0l0,1.31l0.84,0l0,0zm-0.85,2.56l-0.75,0l0,-4.51l1.74,0c1.11,0 1.68,0.38 1.68,1.3c0,0.81 -0.51,1.16 -1.2,1.23l1.29,1.98l-0.86,0l-1.18,-1.93l-0.72,0l0,1.93l0,0zm0.82,-5.7c-1.78,0 -3.21,1.4 -3.21,3.36c0,1.86 1.22,3.37 3.21,3.37c1.78,0 3.18,-1.37 3.18,-3.37c0,-1.99 -1.4,-3.36 -3.18,-3.36zm0,7.43c-2.39,0 -4.09,-1.74 -4.09,-4.07c0,-1.06 0.44,-2.07 1.2,-2.82c0.76,-0.75 1.8,-1.17 2.88,-1.17c1.08,0 2.12,0.42 2.88,1.17c0.77,0.75 1.2,1.76 1.2,2.82c0.02,0.54 -0.08,1.07 -0.27,1.56c-0.2,0.5 -0.5,0.95 -0.88,1.33c-0.38,0.38 -0.83,0.69 -1.33,0.89c-0.51,0.2 -1.05,0.31 -1.59,0.3" fill="#da6c27" id="svg_14"/>
  </g>
 </g>
</svg>